<svg xmlns="http://www.w3.org/2000/svg" fill="none" viewBox="0 0 216 64"><path d="M72 9.5v45h7.822V23.52h.418l12.435 30.848h5.846l12.438-30.784h.416V54.5h7.822v-45h-9.975L95.861 42.107h-.526L81.975 9.5H72Zm88.376 0v45h7.822V23.52h.417l12.437 30.848h5.843l12.438-30.784h.418V54.5h7.822v-45h-9.976l-13.359 32.607h-.528L170.351 9.5h-9.975Zm-39.179 45 8.153-19.117h20.852l8.174 19.117v-45l-8.174 19.051H129.35L121.197 9.5v45Z" style="white-space:pre;fill:#000"/><path d="m0 0 32 32L64 0v64H0V0Z" style="stroke:#000;stroke-width:0;fill:#000"/></svg>